<?xml version="1.0" encoding="UTF-8"?>
<svg width="335.74" height="120.96" preserveAspectRatio="xMidYMid" version="1.0" viewBox="0 0 251.8 90.719" xmlns="http://www.w3.org/2000/svg" zoomAndPan="magnify">
 <defs>
  <clipPath id="cbd1511bfc">
   <path d="m18.082 26.641h251.92v61.629h-251.92z"/>
  </clipPath>
  <clipPath id="ea815f00a6">
   <path d="m38.621 88.27h210.76l20.539-61.629h-251.84z"/>
  </clipPath>
  <clipPath id="95c80148ce">
   <path d="m27.848 55.73h232.55v61.629h-232.55z"/>
  </clipPath>
  <clipPath id="370b053c94">
   <path d="m48.387 117.36h191.28l20.539-61.629h-232.36z"/>
  </clipPath>
  <clipPath id="7bbcc8615c">
   <path d="m21.445 28.453h245.21v59.168h-245.21z"/>
  </clipPath>
  <clipPath id="410179d017">
   <path d="m41.168 87.621h205.66l19.723-59.168h-245.11z"/>
  </clipPath>
  <clipPath id="d66cb70361">
   <path d="m30.949 56.379h226.26v59.168h-226.26z"/>
  </clipPath>
  <clipPath id="976504ab9a">
   <path d="m50.672 115.55h186.71l19.723-59.168h-226.15z"/>
  </clipPath>
 </defs>
 <g transform="translate(-18.082 -26.641)" clip-path="url(#cbd1511bfc)">
  <g clip-path="url(#ea815f00a6)">
   <path d="m18.082 26.641h251.8v61.629h-251.8z" fill="#262626"/>
  </g>
 </g>
 <g transform="translate(-18.082 -26.641)" clip-path="url(#95c80148ce)">
  <g clip-path="url(#370b053c94)">
   <path d="m27.848 55.73h232.3v61.629h-232.3z" fill="#262626"/>
  </g>
 </g>
 <g transform="translate(-18.082 -26.641)" clip-path="url(#7bbcc8615c)">
  <g clip-path="url(#410179d017)">
   <path d="m21.445 28.453h245.21v59.168h-245.21z" fill="#fff"/>
  </g>
 </g>
 <g transform="translate(-18.082 -26.641)" clip-path="url(#d66cb70361)">
  <g clip-path="url(#976504ab9a)">
   <path d="m30.949 56.379h226.26v59.168h-226.26z" fill="#fff"/>
  </g>
 </g>
 <g transform="translate(-18.082 -26.641)">
  <g transform="translate(49.844 73.619)">
   <path d="m1.2344 0v-20.953h-6.1875v-8.875h23.797c2.3828 0 4.4844 0.32031 6.2969 0.95312 1.8203 0.625 3.3594 1.4805 4.6094 2.5625 1.25 1.0742 2.2891 2.5273 3.125 4.3594 0.83203 1.8242 1.25 4.2031 1.25 7.1406-0.14844 2.7109-0.60156 5.0156-1.3594 6.9219-0.76172 1.8984-1.7656 3.3984-3.0156 4.5-1.25 1.1055-2.7812 1.9609-4.5938 2.5625-1.8125 0.60547-4.0859 0.87891-6.8125 0.82812zm9.9688-22.438v15h5.6719c1.2812 0 2.3125-0.26953 3.0938-0.8125 0.78906-0.53906 1.4297-1.2344 1.9219-2.0781 0.5-0.85156 0.81641-2.3828 0.95312-4.5938-0.042969-2.0078-0.32422-3.4922-0.84375-4.4531-0.51172-0.95703-1.1719-1.707-1.9844-2.25-0.8125-0.53906-1.8711-0.8125-3.1719-0.8125z"/>
  </g>
  <g transform="translate(84.186 73.619)">
   <path d="m1.2344 0v-29.828h19.422c2.3945 0.21875 4.3633 0.85547 5.9062 1.9062 1.5508 1.043 2.6797 2.4453 3.3906 4.2031 0.55078 2.6484 0.57812 4.6875 0.07813 6.125-0.49219 1.4297-1.3555 2.625-2.5938 3.5938-1.2422 0.96094-3.0156 1.7148-5.3281 2.2656l2.2344 2.8438h8.9219v8.8906h-11.781l-9.4531-9.8594v9.8594zm10.797-22.391v5.4844h7.5156c0.39453 0 0.82812-0.14453 1.2969-0.4375 0.46875-0.28906 0.71875-1.0391 0.75-2.25-0.07422-1.1328-0.35547-1.8828-0.84375-2.25-0.49219-0.36328-0.89844-0.54688-1.2188-0.54688z"/>
  </g>
  <g transform="translate(116.21 73.619)">
   <path d="m34.469-14.75c0 3.2617-0.68359 6.043-2.0469 8.3438-1.3672 2.3047-3.3398 4.0312-5.9219 5.1875-2.5859 1.1562-5.668 1.7344-9.25 1.7344-3.5859 0-6.6641-0.57812-9.2344-1.7344-2.5625-1.1641-4.5078-2.8906-5.8281-5.1719-1.3242-2.2812-1.9844-5.0664-1.9844-8.3594 0-2.4883 0.37891-4.6797 1.1406-6.5781 0.75781-1.8945 1.8672-3.4883 3.3281-4.7812 1.457-1.3008 3.2422-2.2852 5.3594-2.9531 2.125-0.66406 4.5312-1 7.2188-1 3.5703 0 6.6484 0.58984 9.2344 1.7656 2.5938 1.1797 4.5703 2.918 5.9375 5.2188 1.3633 2.293 2.0469 5.0703 2.0469 8.3281zm-23.656 0.07813c0 1.918 0.42578 3.5859 1.2812 5 0.86328 1.418 2.5625 2.125 5.0938 2.125 1.957 0 3.4219-0.36719 4.3906-1.1094 0.96875-0.73828 1.5703-1.5859 1.8125-2.5469 0.25-0.95703 0.41406-2.1133 0.5-3.4688-0.08594-1.9141-0.54688-3.582-1.3906-5-0.84375-1.4258-2.6172-2.1406-5.3125-2.1406-4.25 0-6.375 2.3828-6.375 7.1406z"/>
  </g>
  <g transform="translate(150.87 73.619)">
   <path d="m0.82812-29.828h9.7031v29.828h-9.7031z"/>
  </g>
  <g transform="translate(162.23 73.619)">
   <path d="m1.2344 0v-29.828h17.609c2.3828 0 4.4844 0.32031 6.2969 0.95312 1.8203 0.625 3.3594 1.4805 4.6094 2.5625 1.25 1.0742 2.2891 2.5273 3.125 4.3594 0.83203 1.8242 1.25 4.2031 1.25 7.1406-0.14844 2.7109-0.60156 5.0156-1.3594 6.9219-0.76172 1.8984-1.7656 3.3984-3.0156 4.5-1.25 1.1055-2.7812 1.9609-4.5938 2.5625-1.8125 0.60547-4.0859 0.87891-6.8125 0.82812zm9.9688-22.438v15h5.6719c1.2812 0 2.3125-0.26953 3.0938-0.8125 0.78906-0.53906 1.4297-1.2344 1.9219-2.0781 0.5-0.85156 0.81641-2.3828 0.95312-4.5938-0.042969-2.0078-0.32422-3.4922-0.84375-4.4531-0.51172-0.95703-1.1719-1.707-1.9844-2.25-0.8125-0.53906-1.8711-0.8125-3.1719-0.8125z"/>
  </g>
  <g transform="translate(196.57 73.619)">
   <path d="m21.609-29.828v8.875h-5.1562v21.125c-0.085937 2.2812-0.33594 3.8906-0.75 4.8281-0.41797 0.9375-1.1562 1.8164-2.2188 2.6406-1.0547 0.83203-2.3828 1.4609-3.9844 1.8906-1.5938 0.42578-3.043 0.70703-4.3438 0.84375-1.293 0.13281-3.0117 0.20312-5.1562 0.20312v-8.8906c1.207 0.03125 2.1758-0.011719 2.9062-0.125 0.73828-0.10547 1.3594-0.28125 1.8594-0.53125 0.50781-0.25 0.92188-0.60156 1.2344-1.0469 0.32031-0.45703 0.56641-1.3047 0.73438-2.5469v-27.266z"/>
  </g>
  <g transform="translate(214.69 73.619)">
   <path d="m26.812-20.953h-9.375c-3.543-0.10156-4.0625 0.875-1.5625 2.9375 4.457 3.918 6.6445 7.7188 6.5625 11.406-0.085938 3.6875-2.2734 5.8906-6.5625 6.6094h-26.047v-8.8906h16.453c3.8945 0.11719 4.3906-0.96875 1.4844-3.25-4.793-4.4141-6.8281-8.4688-6.1094-12.156s2.9727-5.5312 6.7656-5.5312h18.391z"/>
  </g>
  <g transform="translate(62.092 104.78)">
   <path d="m7.7969-5.3594v1.2969h-3.4062l2.7656 4.0625h-1.625l-5.5312-8.125v-1.2969h9.0938v1.2969h-7.4688l1.875 2.7656z"/>
  </g>
  <g transform="translate(72.167 104.78)"></g>
  <g transform="translate(79.88 104.78)"></g>
  <g transform="translate(87.603 104.78)">
   <path d="m0-8.125v-1.2969h9.0938v1.2969l-5.5156 8.125h-1.625l5.5156-8.125z"/>
  </g>
  <g transform="translate(97.678 104.78)"></g>
  <g transform="translate(105.39 104.78)"></g>
  <g transform="translate(113.11 104.78)">
   <path d="m4.6094-8.125-3.0469 6.8281h9.5469l-3.0469-6.8281zm-3.9531 8.125-0.65625-1.2969 3.5781-8.125h5.5156l3.5781 8.125-0.64062 1.2969z"/>
  </g>
  <g transform="translate(126.77 104.78)"></g>
  <g transform="translate(134.48 104.78)"></g>
  <g transform="translate(142.2 104.78)">
   <path d="m2.2812-9.4219h1.2969v9.4219h-1.2969v-7.7969l-1.625 1.2969-0.65625-0.96875z"/>
  </g>
  <g transform="translate(146.76 104.78)"></g>
  <g transform="translate(154.47 104.78)"></g>
  <g transform="translate(162.2 104.78)">
   <path d="m5.5938-5.3594 1.875-2.7656h-7.4688v-1.2969h9.0938v1.2969l-2.75 4.0625-2.7656 4.0625h-1.625l2.7656-4.0625h-3.4219v-1.2969z"/>
  </g>
  <g transform="translate(172.27 104.78)"></g>
  <g transform="translate(179.98 104.78)"></g>
  <g transform="translate(187.71 104.78)">
   <path d="m1.625-9.4219c1.5195 2.7109 3.9062 4.0625 7.1562 4.0625h1.625v1.2969h-1.625c-2.1055 0-3.9141-0.48828-5.4219-1.4688l1.9062 4.2344h5.1406v1.2969h-6.1875l-4.2188-9.4219z"/>
  </g>
  <g transform="translate(199.09 104.78)"></g>
  <g transform="translate(206.8 104.78)"></g>
  <g transform="translate(214.52 104.78)">
   <path d="m8.125-9.4219h1.625l-7.4688 9.4219h-2.2812v-9.4219h1.2969v8.6094zm-3.25 9.4219-0.65625-0.96875 5.5312-2.9375 0.65625 0.98438z"/>
  </g>
 </g>
</svg>
